<svg width="800" height="400" viewBox="0 0 800 400" xmlns="http://www.w3.org/2000/svg"><mask id="satori_om-id"><rect x="0" y="0" width="800" height="400" fill="#fff"/></mask><rect x="0" y="0" width="800" height="400" fill="black"/><clipPath id="satori_cp-id-0"><rect x="255" y="168" width="50" height="65"/></clipPath><mask id="satori_om-id-0"><rect x="255" y="168" width="50" height="65" fill="#fff"/></mask><image x="255" y="168" width="50" height="65" href="data:image/svg+xml;utf8,%3Csvg  fill=%22none%22 xmlns=%22http://www.w3.org/2000/svg%22 width=%2250.55555555555555%22 height=%2265%22 viewBox=%220 0 350 450%22%3E%3Cmask id=%22path-1-inside-1_6_3%22 fill=%22white%22%3E%3Cpath fill-rule=%22evenodd%22 clip-rule=%22evenodd%22 d=%22M177.627 0.124494C172.53 0.303509 165.483 0.744502 161.526 1.13207C158.894 1.38984 158.044 1.47773 156.159 1.68712C134.933 4.04372 115.132 9.1056 97.5974 16.6572C87.5251 20.9952 77.2445 26.7119 68.6746 32.7402C56.839 41.0657 48.0564 49.3088 41.2016 58.5257C32.2976 70.4978 26.9178 83.8592 25.0314 98.6869C24.4787 103.031 24.3743 104.972 24.3724 110.933C24.3706 116.361 24.4153 117.461 24.7923 121.259C26.4535 137.99 32.447 152.964 42.5974 165.742C45.3193 169.169 49.3452 173.238 53.2262 176.485C62.7631 184.465 75.9187 192.312 92.2899 199.784C97.4339 202.132 107.17 206.175 112.834 208.315C114.129 208.805 115.188 209.232 115.187 209.265C115.187 209.298 114.69 209.507 114.084 209.729C106.487 212.516 93.7225 217.841 86.2668 221.335C85.742 221.581 84.937 221.958 84.4778 222.173C81.2743 223.671 75.7634 226.402 72.9683 227.876C56.7348 236.437 44.115 244.994 34.0865 254.238C30.9376 257.141 26.1157 262.224 24.3259 264.528C24.1511 264.753 23.3875 265.715 22.6287 266.667C19.0174 271.195 15.6018 276.206 12.5719 281.423C11.4722 283.317 8.57243 289.009 7.73981 290.908C1.60305 304.909 -0.887053 319.255 0.278923 333.891C0.463433 336.207 0.724034 338.602 0.925361 339.834C0.990124 340.23 1.12907 341.095 1.23415 341.755C2.39285 349.038 4.98517 357.493 8.22894 364.567C15.81 381.102 27.9675 396.219 45.4171 410.808C52.3819 416.631 60.2907 422.012 68.3168 426.388C69.8747 427.238 75.9746 430.309 77.5005 431.012C92.1553 437.766 108.595 442.716 126.759 445.843C133.065 446.929 139.39 447.79 145.305 448.368C146.355 448.47 147.75 448.606 148.406 448.67C149.062 448.734 150.297 448.842 151.149 448.91C152.002 448.978 152.995 449.06 153.356 449.093C154.389 449.186 159.485 449.492 162.301 449.63C172.359 450.123 185.881 450.123 195.577 449.631C224.046 448.185 248.919 443.222 271.85 434.41C291.462 426.873 310.649 415.474 324.024 403.414C331.714 396.48 337.641 389.416 341.915 382.092C344.014 378.494 346.236 373.539 347.394 369.87C350.386 360.393 350.818 350.116 348.606 341.024C346.687 333.138 342.992 326.454 337.271 320.52C330.433 313.426 322.479 309.075 313.236 307.373C310.06 306.787 307.919 306.6 304.41 306.6C301.319 306.6 299.718 306.741 297.149 307.24C291.539 308.33 285.619 311.046 280.262 314.989C276.997 317.391 273 321.085 271.509 323.078C269.517 325.74 266.852 330.76 264.43 336.412C262.376 341.206 261.213 344.198 257.574 354.062C256.489 357.002 254.067 363.071 252.615 366.488C245.702 382.754 239.322 393.365 232.849 399.362C223.174 408.324 212.081 413.97 198.738 416.721C187.523 419.033 173.476 419.04 161.016 416.738C147.062 414.161 134.447 408.442 123.756 399.846C118.129 395.322 112.35 389.313 108.246 383.717C99.7933 372.193 94.1177 358.149 91.3362 341.875C89.4465 330.819 88.8108 317.09 89.6712 305.916C91.5752 281.191 100.885 260.888 117.217 245.844C119.343 243.886 120.148 243.186 121.809 241.852C134.087 231.991 148.814 226.113 165.521 224.405C169.992 223.948 171.718 223.869 177.09 223.875C182.626 223.881 185.88 224.02 192.297 224.523C194.153 224.669 199.736 225.188 201.242 225.355C205.841 225.865 209.571 226.328 215.646 227.146C219.398 227.651 221.879 227.933 226.408 228.371C228.175 228.541 235.117 228.534 237.721 228.358C245.543 227.832 251.101 226.711 255.57 224.76C257.53 223.904 260.092 222.286 261.629 220.933C263.229 219.523 264.486 217.431 265.067 215.208C265.343 214.152 265.381 213.777 265.381 212.087C265.381 210.401 265.342 210.021 265.07 208.98C264.455 206.632 263.155 204.523 261.113 202.562C258.499 200.052 255.924 198.637 251.932 197.516C244.207 195.346 231.215 194.859 216.39 196.181C210.147 196.738 206.42 197.142 200.229 197.931C188.307 199.452 181.727 199.972 172.797 200.101C160.705 200.276 151.542 199.036 142.323 195.978C132.138 192.6 123.771 187.428 116.355 179.926C104.492 167.927 97.5576 151.508 95.4563 130.445C94.6741 122.604 94.5584 113.048 95.1575 105.771C97.0479 82.8054 104.792 64.6604 118.684 50.6461C124.953 44.3225 131.665 39.4478 139.401 35.602C150.073 30.2965 161.093 27.4543 175.599 26.2651C178.219 26.0503 190.258 26.0498 192.476 26.2643C200.962 27.085 206.82 28.2529 213.028 30.3611C219.16 32.444 226.5 36.258 230.284 39.3282C232.404 41.0474 235.724 44.681 238.173 47.9601C243.553 55.1641 248.775 63.9102 255.631 77.1956C258.294 82.3564 259.797 84.9747 262.04 88.3615C271.193 102.179 281.813 109.59 294.392 110.94C296.055 111.118 300.192 111.12 301.906 110.942C309.752 110.131 316.534 107.162 323.016 101.702C324.403 100.534 327.544 97.3707 328.692 95.9855C332.1 91.8745 334.236 88.1809 335.731 83.8156C338.23 76.519 338.041 68.5835 335.164 60.0265C333.524 55.1493 331.105 50.344 327.67 45.1387C324.56 40.4269 322.53 37.8821 319.479 34.8687C315.474 30.912 311.068 27.6227 305.305 24.2866C303.77 23.3979 299.891 21.3219 299.195 21.0161C298.915 20.8931 297.988 20.4576 297.135 20.0485C289.857 16.5577 279.36 12.7965 268.793 9.89345C249.523 4.59938 228.503 1.43535 205.417 0.354056C197.865 0.000349229 184.343 -0.11131 177.627 0.124494Z%22%3E%3C/path%3E%3C/mask%3E%3Cpath fill-rule=%22evenodd%22 clip-rule=%22evenodd%22 d=%22M177.627 0.124494C172.53 0.303509 165.483 0.744502 161.526 1.13207C158.894 1.38984 158.044 1.47773 156.159 1.68712C134.933 4.04372 115.132 9.1056 97.5974 16.6572C87.5251 20.9952 77.2445 26.7119 68.6746 32.7402C56.839 41.0657 48.0564 49.3088 41.2016 58.5257C32.2976 70.4978 26.9178 83.8592 25.0314 98.6869C24.4787 103.031 24.3743 104.972 24.3724 110.933C24.3706 116.361 24.4153 117.461 24.7923 121.259C26.4535 137.99 32.447 152.964 42.5974 165.742C45.3193 169.169 49.3452 173.238 53.2262 176.485C62.7631 184.465 75.9187 192.312 92.2899 199.784C97.4339 202.132 107.17 206.175 112.834 208.315C114.129 208.805 115.188 209.232 115.187 209.265C115.187 209.298 114.69 209.507 114.084 209.729C106.487 212.516 93.7225 217.841 86.2668 221.335C85.742 221.581 84.937 221.958 84.4778 222.173C81.2743 223.671 75.7634 226.402 72.9683 227.876C56.7348 236.437 44.115 244.994 34.0865 254.238C30.9376 257.141 26.1157 262.224 24.3259 264.528C24.1511 264.753 23.3875 265.715 22.6287 266.667C19.0174 271.195 15.6018 276.206 12.5719 281.423C11.4722 283.317 8.57243 289.009 7.73981 290.908C1.60305 304.909 -0.887053 319.255 0.278923 333.891C0.463433 336.207 0.724034 338.602 0.925361 339.834C0.990124 340.23 1.12907 341.095 1.23415 341.755C2.39285 349.038 4.98517 357.493 8.22894 364.567C15.81 381.102 27.9675 396.219 45.4171 410.808C52.3819 416.631 60.2907 422.012 68.3168 426.388C69.8747 427.238 75.9746 430.309 77.5005 431.012C92.1553 437.766 108.595 442.716 126.759 445.843C133.065 446.929 139.39 447.79 145.305 448.368C146.355 448.47 147.75 448.606 148.406 448.67C149.062 448.734 150.297 448.842 151.149 448.91C152.002 448.978 152.995 449.06 153.356 449.093C154.389 449.186 159.485 449.492 162.301 449.63C172.359 450.123 185.881 450.123 195.577 449.631C224.046 448.185 248.919 443.222 271.85 434.41C291.462 426.873 310.649 415.474 324.024 403.414C331.714 396.48 337.641 389.416 341.915 382.092C344.014 378.494 346.236 373.539 347.394 369.87C350.386 360.393 350.818 350.116 348.606 341.024C346.687 333.138 342.992 326.454 337.271 320.52C330.433 313.426 322.479 309.075 313.236 307.373C310.06 306.787 307.919 306.6 304.41 306.6C301.319 306.6 299.718 306.741 297.149 307.24C291.539 308.33 285.619 311.046 280.262 314.989C276.997 317.391 273 321.085 271.509 323.078C269.517 325.74 266.852 330.76 264.43 336.412C262.376 341.206 261.213 344.198 257.574 354.062C256.489 357.002 254.067 363.071 252.615 366.488C245.702 382.754 239.322 393.365 232.849 399.362C223.174 408.324 212.081 413.97 198.738 416.721C187.523 419.033 173.476 419.04 161.016 416.738C147.062 414.161 134.447 408.442 123.756 399.846C118.129 395.322 112.35 389.313 108.246 383.717C99.7933 372.193 94.1177 358.149 91.3362 341.875C89.4465 330.819 88.8108 317.09 89.6712 305.916C91.5752 281.191 100.885 260.888 117.217 245.844C119.343 243.886 120.148 243.186 121.809 241.852C134.087 231.991 148.814 226.113 165.521 224.405C169.992 223.948 171.718 223.869 177.09 223.875C182.626 223.881 185.88 224.02 192.297 224.523C194.153 224.669 199.736 225.188 201.242 225.355C205.841 225.865 209.571 226.328 215.646 227.146C219.398 227.651 221.879 227.933 226.408 228.371C228.175 228.541 235.117 228.534 237.721 228.358C245.543 227.832 251.101 226.711 255.57 224.76C257.53 223.904 260.092 222.286 261.629 220.933C263.229 219.523 264.486 217.431 265.067 215.208C265.343 214.152 265.381 213.777 265.381 212.087C265.381 210.401 265.342 210.021 265.07 208.98C264.455 206.632 263.155 204.523 261.113 202.562C258.499 200.052 255.924 198.637 251.932 197.516C244.207 195.346 231.215 194.859 216.39 196.181C210.147 196.738 206.42 197.142 200.229 197.931C188.307 199.452 181.727 199.972 172.797 200.101C160.705 200.276 151.542 199.036 142.323 195.978C132.138 192.6 123.771 187.428 116.355 179.926C104.492 167.927 97.5576 151.508 95.4563 130.445C94.6741 122.604 94.5584 113.048 95.1575 105.771C97.0479 82.8054 104.792 64.6604 118.684 50.6461C124.953 44.3225 131.665 39.4478 139.401 35.602C150.073 30.2965 161.093 27.4543 175.599 26.2651C178.219 26.0503 190.258 26.0498 192.476 26.2643C200.962 27.085 206.82 28.2529 213.028 30.3611C219.16 32.444 226.5 36.258 230.284 39.3282C232.404 41.0474 235.724 44.681 238.173 47.9601C243.553 55.1641 248.775 63.9102 255.631 77.1956C258.294 82.3564 259.797 84.9747 262.04 88.3615C271.193 102.179 281.813 109.59 294.392 110.94C296.055 111.118 300.192 111.12 301.906 110.942C309.752 110.131 316.534 107.162 323.016 101.702C324.403 100.534 327.544 97.3707 328.692 95.9855C332.1 91.8745 334.236 88.1809 335.731 83.8156C338.23 76.519 338.041 68.5835 335.164 60.0265C333.524 55.1493 331.105 50.344 327.67 45.1387C324.56 40.4269 322.53 37.8821 319.479 34.8687C315.474 30.912 311.068 27.6227 305.305 24.2866C303.77 23.3979 299.891 21.3219 299.195 21.0161C298.915 20.8931 297.988 20.4576 297.135 20.0485C289.857 16.5577 279.36 12.7965 268.793 9.89345C249.523 4.59938 228.503 1.43535 205.417 0.354056C197.865 0.000349229 184.343 -0.11131 177.627 0.124494Z%22 fill=%22white%22 stroke=%22white%22 stroke-width=%222%22 mask=%22url(%23path-1-inside-1_6_3)%22%3E%3C/path%3E%3C/svg%3E" preserveAspectRatio="none" clip-path="url(#satori_cp-id-0)" mask="url(#satori_om-id-0)"/><mask id="satori_om-id-0-0"><rect x="255" y="168" width="0" height="65" fill="#fff"/></mask><mask id="satori_om-id-0-0-0"><rect x="255" y="168" width="0" height="65" fill="#fff"/></mask><mask id="satori_om-id-0-1"><rect x="255" y="168" width="0" height="65" fill="#fff"/></mask><mask id="satori_om-id-1"><rect x="307" y="128" width="238" height="144" fill="#fff"/></mask><g  ><path fill="white" d="M323.9 245.4L311.8 245.4L311.8 185.4L323.8 185.4L323.8 192.7L324.3 192.7Q325.1 190.9 326.6 189.1Q328.1 187.3 330.6 186.0Q333.1 184.8 336.7 184.8L336.7 184.8Q341.5 184.8 345.5 187.3Q349.6 189.8 352.0 194.8Q354.4 199.7 354.4 207.2L354.4 207.2Q354.4 214.5 352.0 219.6Q349.7 224.6 345.7 227.1Q341.7 229.7 336.7 229.7L336.7 229.7Q333.2 229.7 330.7 228.5Q328.3 227.4 326.7 225.6Q325.1 223.8 324.3 222.0L324.3 222.0L323.9 222.0L323.9 245.4ZM323.7 207.2L323.7 207.2Q323.7 211.1 324.8 214.0Q325.8 216.9 327.9 218.5Q329.9 220.1 332.9 220.1L332.9 220.1Q335.8 220.1 337.9 218.4Q339.9 216.8 341.0 213.9Q342.0 211.0 342.0 207.2L342.0 207.2Q342.0 203.4 341.0 200.5Q339.9 197.7 337.9 196.0Q335.8 194.4 332.9 194.4L332.9 194.4Q329.9 194.4 327.9 196.0Q325.8 197.6 324.8 200.4Q323.7 203.3 323.7 207.2ZM398.7 197.8L398.7 197.8L387.7 198.5Q387.4 197.1 386.4 195.9Q385.5 194.8 384.0 194.1Q382.5 193.4 380.4 193.4L380.4 193.4Q377.5 193.4 375.6 194.6Q373.7 195.7 373.7 197.7L373.7 197.7Q373.7 199.3 374.9 200.3Q376.2 201.4 379.2 202.1L379.2 202.1L387.1 203.7Q393.5 205.0 396.6 207.9Q399.7 210.8 399.7 215.5L399.7 215.5Q399.7 219.8 397.2 223.0Q394.7 226.2 390.3 228.0Q386.0 229.9 380.3 229.9L380.3 229.9Q371.6 229.9 366.5 226.2Q361.4 222.6 360.5 216.4L360.5 216.4L372.4 215.7Q372.9 218.4 375.0 219.8Q377.1 221.1 380.3 221.1L380.3 221.1Q383.5 221.1 385.5 219.9Q387.4 218.7 387.4 216.7L387.4 216.7Q387.4 215.1 386.0 214.0Q384.7 212.9 381.8 212.4L381.8 212.4L374.3 210.8Q367.9 209.6 364.8 206.4Q361.7 203.3 361.7 198.4L361.7 198.4Q361.7 194.2 363.9 191.1Q366.2 188.1 370.4 186.4Q374.6 184.8 380.2 184.8L380.2 184.8Q388.4 184.8 393.2 188.3Q397.9 191.8 398.7 197.8ZM419.5 229L407.4 229L407.4 185.4L419.5 185.4L419.5 229ZM413.4 179.7L413.4 179.7Q410.8 179.7 408.8 177.9Q406.9 176.1 406.9 173.6L406.9 173.6Q406.9 171.1 408.8 169.3Q410.8 167.5 413.4 167.5L413.4 167.5Q416.1 167.5 418.1 169.3Q420.0 171.1 420.0 173.6L420.0 173.6Q420.0 176.1 418.1 177.9Q416.1 179.7 413.4 179.7ZM429.1 170.8L441.2 170.8L441.2 229L429.1 229L429.1 170.8ZM470.6 229.9L470.6 229.9Q464.0 229.9 459.2 227.0Q454.4 224.2 451.7 219.1Q449.1 214.1 449.1 207.4L449.1 207.4Q449.1 200.6 451.7 195.5Q454.4 190.4 459.2 187.6Q464.0 184.8 470.6 184.8L470.6 184.8Q477.2 184.8 482.0 187.6Q486.9 190.4 489.5 195.5Q492.1 200.6 492.1 207.4L492.1 207.4Q492.1 214.1 489.5 219.1Q486.9 224.2 482.0 227.0Q477.2 229.9 470.6 229.9ZM470.7 220.5L470.7 220.5Q473.7 220.5 475.7 218.8Q477.7 217.0 478.7 214.1Q479.8 211.1 479.8 207.3L479.8 207.3Q479.8 203.5 478.7 200.5Q477.7 197.5 475.7 195.8Q473.7 194.0 470.7 194.0L470.7 194.0Q467.6 194.0 465.6 195.8Q463.5 197.5 462.5 200.5Q461.4 203.5 461.4 207.3L461.4 207.3Q461.4 211.1 462.5 214.1Q463.5 217.0 465.6 218.8Q467.6 220.5 470.7 220.5ZM512.1 203.8L512.1 203.8L512.1 229L500.0 229L500.0 185.4L511.5 185.4L511.5 193.1L512.0 193.1Q513.5 189.3 516.9 187.0Q520.3 184.8 525.2 184.8L525.2 184.8Q529.7 184.8 533.1 186.8Q536.5 188.8 538.3 192.5Q540.2 196.1 540.2 201.2L540.2 201.2L540.2 229L528.1 229L528.1 203.4Q528.1 199.4 526.1 197.1Q524.0 194.9 520.4 194.9L520.4 194.9Q517.9 194.9 516.0 195.9Q514.2 197.0 513.2 199.0Q512.1 201.0 512.1 203.8Z "/></g></svg>