<svg width="800" height="400" viewBox="0 0 800 400" xmlns="http://www.w3.org/2000/svg"><mask id="satori_om-id"><rect x="0" y="0" width="800" height="400" fill="#fff"/></mask><rect x="0" y="0" width="800" height="400" fill="#000"/><mask id="satori_om-id-0"><rect x="254" y="152" width="292" height="97" fill="#fff"/></mask><g  ><path fill="#fff" d="M287.8 195.7L287.8 202.2L278.9 202.2Q273.3 202.2 268.8 200.3Q264.4 198.5 261.9 195.2Q259.4 192.0 259.4 187.6L259.4 187.6Q259.4 182.4 262.1 178.7Q264.8 175.0 269.7 173.0Q274.6 171.0 281.1 171.0L281.1 171.0Q287.3 171.0 292.0 173.1Q296.8 175.1 299.5 178.8Q302.3 182.4 302.3 187.2L302.3 187.2L289.9 187.2Q289.9 184.3 287.6 182.6Q285.4 181.0 281.1 181.0L281.1 181.0Q278.0 181.0 275.9 181.9Q273.9 182.7 272.8 184.3Q271.8 186.0 271.8 188.3L271.8 188.3Q271.8 190.4 272.8 192.1Q273.7 193.8 275.6 194.7Q277.6 195.7 280.7 195.7L280.7 195.7L287.8 195.7ZM278.9 198.8L278.9 198.8L287.8 198.8L287.8 205.1L280.7 205.1Q277.4 205.1 275.2 206.0Q273.1 206.9 272.0 208.7Q271.0 210.5 271.0 213.1L271.0 213.1Q271.0 215.9 272.2 217.7Q273.4 219.4 275.6 220.1Q277.8 220.9 280.6 220.9L280.6 220.9Q285.6 220.9 288.2 219.0Q290.7 217.1 290.7 214.2L290.7 214.2L303.1 214.2Q303.1 219.5 300.2 223.2Q297.3 226.9 292.3 228.8Q287.3 230.8 281.0 230.8L281.0 230.8Q274.3 230.8 269.2 228.9Q264.1 227.0 261.3 223.3Q258.5 219.5 258.5 213.9L258.5 213.9Q258.5 206.6 263.9 202.7Q269.3 198.8 278.9 198.8ZM324.6 246.4L312.5 246.4L312.5 186.4L324.4 186.4L324.4 193.7L325.0 193.7Q325.8 191.9 327.3 190.1Q328.8 188.3 331.3 187.0Q333.7 185.8 337.4 185.8L337.4 185.8Q342.2 185.8 346.2 188.3Q350.2 190.8 352.6 195.8Q355.1 200.7 355.1 208.2L355.1 208.2Q355.1 215.5 352.7 220.6Q350.4 225.6 346.3 228.1Q342.3 230.7 337.4 230.7L337.4 230.7Q333.8 230.7 331.4 229.5Q328.9 228.4 327.4 226.6Q325.8 224.8 325.0 223.0L325.0 223.0L324.6 223.0L324.6 246.4ZM324.3 208.2L324.3 208.2Q324.3 212.1 325.4 215.0Q326.5 217.9 328.5 219.5Q330.6 221.1 333.5 221.1L333.5 221.1Q336.5 221.1 338.5 219.4Q340.6 217.8 341.6 214.9Q342.7 212.0 342.7 208.2L342.7 208.2Q342.7 204.4 341.6 201.5Q340.6 198.7 338.5 197.0Q336.5 195.4 333.5 195.4L333.5 195.4Q330.6 195.4 328.5 197.0Q326.5 198.6 325.4 201.4Q324.3 204.3 324.3 208.2ZM399.4 198.8L399.4 198.8L388.3 199.5Q388.0 198.1 387.1 196.9Q386.2 195.8 384.6 195.1Q383.1 194.4 381.0 194.4L381.0 194.4Q378.2 194.4 376.3 195.6Q374.3 196.7 374.3 198.7L374.3 198.7Q374.3 200.3 375.6 201.3Q376.8 202.4 379.9 203.1L379.9 203.1L387.8 204.7Q394.1 206.0 397.3 208.9Q400.4 211.8 400.4 216.5L400.4 216.5Q400.4 220.8 397.9 224.0Q395.4 227.2 391.0 229.0Q386.6 230.9 381.0 230.9L381.0 230.9Q372.3 230.9 367.2 227.2Q362.0 223.6 361.2 217.4L361.2 217.4L373.1 216.7Q373.6 219.4 375.7 220.8Q377.8 222.1 381.0 222.1L381.0 222.1Q384.2 222.1 386.1 220.9Q388.1 219.7 388.1 217.7L388.1 217.7Q388.1 216.1 386.7 215.0Q385.3 213.9 382.5 213.4L382.5 213.4L374.9 211.8Q368.5 210.6 365.4 207.4Q362.3 204.3 362.3 199.4L362.3 199.4Q362.3 195.2 364.6 192.1Q366.9 189.1 371.1 187.4Q375.2 185.8 380.8 185.8L380.8 185.8Q389.1 185.8 393.8 189.3Q398.6 192.8 399.4 198.8ZM420.1 230L408.0 230L408.0 186.4L420.1 186.4L420.1 230ZM414.1 180.7L414.1 180.7Q411.4 180.7 409.5 178.9Q407.6 177.1 407.6 174.6L407.6 174.6Q407.6 172.1 409.5 170.3Q411.4 168.5 414.1 168.5L414.1 168.5Q416.8 168.5 418.7 170.3Q420.6 172.1 420.6 174.6L420.6 174.6Q420.6 177.1 418.7 178.9Q416.8 180.7 414.1 180.7ZM429.8 171.8L441.9 171.8L441.9 230L429.8 230L429.8 171.8ZM471.3 230.9L471.3 230.9Q464.7 230.9 459.8 228.0Q455.0 225.2 452.4 220.1Q449.8 215.1 449.8 208.4L449.8 208.4Q449.8 201.6 452.4 196.5Q455.0 191.4 459.8 188.6Q464.7 185.8 471.3 185.8L471.3 185.8Q477.9 185.8 482.7 188.6Q487.5 191.4 490.1 196.5Q492.8 201.6 492.8 208.4L492.8 208.4Q492.8 215.1 490.1 220.1Q487.5 225.2 482.7 228.0Q477.9 230.9 471.3 230.9ZM471.3 221.5L471.3 221.5Q474.3 221.5 476.4 219.8Q478.4 218.0 479.4 215.1Q480.4 212.1 480.4 208.3L480.4 208.3Q480.4 204.5 479.4 201.5Q478.4 198.5 476.4 196.8Q474.3 195.0 471.3 195.0L471.3 195.0Q468.3 195.0 466.2 196.8Q464.2 198.5 463.1 201.5Q462.1 204.5 462.1 208.3L462.1 208.3Q462.1 212.1 463.1 215.1Q464.2 218.0 466.2 219.8Q468.3 221.5 471.3 221.5ZM512.8 204.8L512.8 204.8L512.8 230L500.6 230L500.6 186.4L512.2 186.4L512.2 194.1L512.7 194.1Q514.1 190.3 517.6 188.0Q521.0 185.8 525.8 185.8L525.8 185.8Q530.4 185.8 533.7 187.8Q537.1 189.8 539 193.5Q540.9 197.1 540.9 202.2L540.9 202.2L540.9 230L528.8 230L528.8 204.4Q528.8 200.4 526.7 198.1Q524.7 195.9 521.0 195.9L521.0 195.9Q518.6 195.9 516.7 196.9Q514.9 198.0 513.8 200.0Q512.8 202.0 512.8 204.8Z "/></g></svg>