<svg width="800" height="400" viewBox="0 0 800 400" xmlns="http://www.w3.org/2000/svg"><mask id="satori_om-id"><rect x="0" y="0" width="800" height="400" fill="#fff"/></mask><rect x="0" y="0" width="800" height="400" fill="#000"/><mask id="satori_om-id-0"><rect x="282" y="161" width="237" height="79" fill="#fff"/></mask><g  ><path fill="#fff" d="M309.5 196.1L309.5 201.4L302.3 201.4Q297.6 201.4 294.1 199.9Q290.5 198.4 288.4 195.8Q286.4 193.1 286.4 189.5L286.4 189.5Q286.4 185.3 288.6 182.3Q290.8 179.3 294.7 177.7Q298.7 176.1 304.0 176.1L304.0 176.1Q309.0 176.1 312.9 177.7Q316.8 179.4 319.0 182.4Q321.2 185.3 321.2 189.2L321.2 189.2L311.2 189.2Q311.2 186.8 309.3 185.5Q307.5 184.2 304.0 184.2L304.0 184.2Q301.5 184.2 299.8 184.9Q298.1 185.6 297.3 186.9Q296.5 188.2 296.5 190.1L296.5 190.1Q296.5 191.8 297.2 193.2Q298.0 194.5 299.6 195.3Q301.2 196.1 303.7 196.1L303.7 196.1L309.5 196.1ZM302.3 198.6L302.3 198.6L309.5 198.6L309.5 203.8L303.7 203.8Q301.0 203.8 299.2 204.5Q297.5 205.3 296.6 206.7Q295.8 208.1 295.8 210.3L295.8 210.3Q295.8 212.6 296.8 214.0Q297.7 215.4 299.5 216.0Q301.3 216.6 303.7 216.6L303.7 216.6Q307.7 216.6 309.8 215.1Q311.8 213.5 311.8 211.2L311.8 211.2L321.9 211.2Q321.9 215.4 319.5 218.4Q317.2 221.5 313.1 223.1Q309.0 224.6 304.0 224.6L304.0 224.6Q298.5 224.6 294.3 223.1Q290.2 221.6 287.9 218.6Q285.6 215.5 285.6 210.9L285.6 210.9Q285.6 205.0 290.0 201.8Q294.4 198.6 302.3 198.6ZM339.4 237.3L329.5 237.3L329.5 188.5L339.2 188.5L339.2 194.5L339.7 194.5Q340.3 193.1 341.5 191.6Q342.8 190.1 344.8 189.1Q346.8 188.1 349.7 188.1L349.7 188.1Q353.6 188.1 356.9 190.1Q360.2 192.1 362.1 196.2Q364.1 200.2 364.1 206.3L364.1 206.3Q364.1 212.3 362.2 216.3Q360.3 220.4 357.0 222.5Q353.8 224.6 349.7 224.6L349.7 224.6Q346.9 224.6 344.9 223.6Q342.9 222.7 341.6 221.2Q340.3 219.8 339.7 218.3L339.7 218.3L339.4 218.3L339.4 237.3ZM339.2 206.3L339.2 206.3Q339.2 209.4 340.0 211.8Q340.9 214.1 342.6 215.4Q344.2 216.8 346.6 216.8L346.6 216.8Q349.0 216.8 350.7 215.4Q352.3 214.1 353.2 211.7Q354.1 209.4 354.1 206.3L354.1 206.3Q354.1 203.2 353.2 200.9Q352.4 198.5 350.7 197.2Q349.0 195.9 346.6 195.9L346.6 195.9Q344.2 195.9 342.6 197.2Q340.9 198.4 340.0 200.8Q339.2 203.1 339.2 206.3ZM400.1 198.7L400.1 198.7L391.1 199.2Q390.9 198.1 390.1 197.1Q389.4 196.2 388.1 195.6Q386.9 195.1 385.2 195.1L385.2 195.1Q382.9 195.1 381.3 196.0Q379.8 197.0 379.8 198.6L379.8 198.6Q379.8 199.8 380.8 200.7Q381.8 201.6 384.3 202.1L384.3 202.1L390.7 203.4Q395.9 204.5 398.4 206.8Q400.9 209.2 400.9 213.0L400.9 213.0Q400.9 216.5 398.9 219.1Q396.9 221.8 393.3 223.2Q389.8 224.7 385.2 224.7L385.2 224.7Q378.1 224.7 373.9 221.7Q369.8 218.8 369.1 213.7L369.1 213.7L378.7 213.2Q379.2 215.4 380.9 216.5Q382.5 217.6 385.2 217.6L385.2 217.6Q387.8 217.6 389.3 216.6Q390.9 215.6 390.9 214.0L390.9 214.0Q390.9 212.7 389.8 211.8Q388.7 210.9 386.4 210.5L386.4 210.5L380.3 209.3Q375.1 208.2 372.5 205.6Q370.0 203.1 370.0 199.1L370.0 199.1Q370.0 195.7 371.9 193.2Q373.7 190.8 377.1 189.4Q380.5 188.1 385.0 188.1L385.0 188.1Q391.8 188.1 395.6 190.9Q399.5 193.8 400.1 198.7ZM417.0 224L407.2 224L407.2 188.5L417.0 188.5L417.0 224ZM412.1 184.0L412.1 184.0Q409.9 184.0 408.3 182.5Q406.8 181.0 406.8 179.0L406.8 179.0Q406.8 177.0 408.3 175.5Q409.9 174.0 412.1 174.0L412.1 174.0Q414.3 174.0 415.8 175.5Q417.4 177.0 417.4 179.0L417.4 179.0Q417.4 181.0 415.8 182.5Q414.3 184.0 412.1 184.0ZM424.8 176.7L434.7 176.7L434.7 224L424.8 224L424.8 176.7ZM458.5 224.7L458.5 224.7Q453.2 224.7 449.2 222.4Q445.3 220.1 443.2 216.0Q441.1 211.9 441.1 206.4L441.1 206.4Q441.1 200.9 443.2 196.8Q445.3 192.7 449.2 190.4Q453.2 188.1 458.5 188.1L458.5 188.1Q463.9 188.1 467.8 190.4Q471.7 192.7 473.9 196.8Q476.0 200.9 476.0 206.4L476.0 206.4Q476.0 211.9 473.9 216.0Q471.7 220.1 467.8 222.4Q463.9 224.7 458.5 224.7ZM458.6 217.1L458.6 217.1Q461.0 217.1 462.7 215.7Q464.3 214.3 465.1 211.9Q466.0 209.4 466.0 206.3L466.0 206.3Q466.0 203.2 465.1 200.8Q464.3 198.4 462.7 197.0Q461.0 195.6 458.6 195.6L458.6 195.6Q456.1 195.6 454.4 197.0Q452.8 198.4 451.9 200.8Q451.1 203.2 451.1 206.3L451.1 206.3Q451.1 209.4 451.9 211.9Q452.8 214.3 454.4 215.7Q456.1 217.1 458.6 217.1ZM492.2 203.5L492.2 203.5L492.2 224L482.4 224L482.4 188.5L491.8 188.5L491.8 194.8L492.2 194.8Q493.4 191.7 496.1 189.9Q498.9 188.1 502.9 188.1L502.9 188.1Q506.5 188.1 509.3 189.7Q512.0 191.3 513.6 194.3Q515.1 197.3 515.1 201.4L515.1 201.4L515.1 224L505.3 224L505.3 203.2Q505.3 199.9 503.6 198.1Q501.9 196.3 499.0 196.3L499.0 196.3Q497.0 196.3 495.5 197.1Q493.9 198.0 493.1 199.6Q492.3 201.2 492.2 203.5Z "/></g></svg>